<?xml version="1.0" encoding="UTF-8" standalone="no"?>
<!-- Created with Inkscape (http://www.inkscape.org/) -->

<svg
   xmlns:osb="http://www.openswatchbook.org/uri/2009/osb"
   xmlns:dc="http://purl.org/dc/elements/1.1/"
   xmlns:cc="http://creativecommons.org/ns#"
   xmlns:rdf="http://www.w3.org/1999/02/22-rdf-syntax-ns#"
   xmlns:svg="http://www.w3.org/2000/svg"
   xmlns="http://www.w3.org/2000/svg"
   xmlns:xlink="http://www.w3.org/1999/xlink"
   xmlns:sodipodi="http://sodipodi.sourceforge.net/DTD/sodipodi-0.dtd"
   xmlns:inkscape="http://www.inkscape.org/namespaces/inkscape"
   width="52.243675mm"
   height="61.359741mm"
   viewBox="0 0 52.243675 165.6713"
   version="1.1"
   id="svg8"
   inkscape:version="0.92.3 (2405546, 2018-03-11)"
   sodipodi:docname="LogoPersonal.svg">
  <defs
     id="defs2">
    <linearGradient
       inkscape:collect="always"
       id="linearGradient5495">
      <stop
         style="stop-color:#000000;stop-opacity:1;"
         offset="0"
         id="stop5491" />
      <stop
         style="stop-color:#000000;stop-opacity:0;"
         offset="1"
         id="stop5493" />
    </linearGradient>
    <linearGradient
       id="linearGradient4611"
       osb:paint="solid">
      <stop
         style="stop-color:#00ffa0;stop-opacity:0.09045226;"
         offset="0"
         id="stop4609" />
    </linearGradient>
    <linearGradient
       inkscape:collect="always"
       xlink:href="#linearGradient5495"
       id="linearGradient5497"
       x1="57.057335"
       y1="115.20014"
       x2="134.99059"
       y2="115.20014"
       gradientUnits="userSpaceOnUse" />
    <linearGradient
       inkscape:collect="always"
       xlink:href="#linearGradient5495"
       id="linearGradient909"
       gradientUnits="userSpaceOnUse"
       x1="57.057335"
       y1="115.20014"
       x2="134.99059"
       y2="115.20014" />
    <linearGradient
       inkscape:collect="always"
       xlink:href="#linearGradient5495"
       id="linearGradient911"
       gradientUnits="userSpaceOnUse"
       x1="57.057335"
       y1="115.20014"
       x2="134.99059"
       y2="115.20014" />
    <linearGradient
       inkscape:collect="always"
       xlink:href="#linearGradient5495"
       id="linearGradient913"
       gradientUnits="userSpaceOnUse"
       x1="57.057335"
       y1="115.20014"
       x2="134.99059"
       y2="115.20014" />
    <linearGradient
       inkscape:collect="always"
       xlink:href="#linearGradient5495"
       id="linearGradient915"
       gradientUnits="userSpaceOnUse"
       x1="57.057335"
       y1="115.20014"
       x2="134.99059"
       y2="115.20014" />
  </defs>
  <sodipodi:namedview
     id="base"
     pagecolor="#ffffff"
     bordercolor="#666666"
     borderopacity="1.0"
     inkscape:pageopacity="0.0"
     inkscape:pageshadow="2"
     inkscape:zoom="0.98994949"
     inkscape:cx="195.49293"
     inkscape:cy="41.089458"
     inkscape:document-units="mm"
     inkscape:current-layer="layer1"
     showgrid="false"
     inkscape:snap-grids="true"
     inkscape:window-width="1366"
     inkscape:window-height="706"
     inkscape:window-x="-8"
     inkscape:window-y="-8"
     inkscape:window-maximized="1"
     showguides="false"
     inkscape:snap-page="false"
     inkscape:measure-start="694.286,911.429"
     inkscape:measure-end="0,0"
     fit-margin-top="0"
     fit-margin-left="0"
     fit-margin-right="0"
     fit-margin-bottom="0" />
  <metadata
     id="metadata5">
    <rdf:RDF>
      <cc:Work
         rdf:about="">
        <dc:format>image/svg+xml</dc:format>
        <dc:type
           rdf:resource="http://purl.org/dc/dcmitype/StillImage" />
        <dc:title></dc:title>
      </cc:Work>
    </rdf:RDF>
  </metadata>
  <g
     inkscape:label="backLogoPersonal"
     inkscape:groupmode="layer"
     id="layer1"
     transform="translate(-2.700001,-1.3286908)">
    <g
       id="g878"
       transform="translate(10.084753,-5.0800728e-6)">
      <g
         transform="translate(-51.791876)"
         inkscape:label="#g6431"
         id="hLetter">
        <desc
           id="desc6435">Letra h del apellido Hernandez</desc>
        <title
           id="title6433">hLetter</title>
        <g
           id="g3782"
           clip-path="none"
           transform="translate(-12.149922,-27.401568)"
           style="opacity:0.84500002;fill:url(#linearGradient5497);fill-opacity:1;stroke:#d6f108;stroke-width:1;stroke-miterlimit:4;stroke-dasharray:none;stroke-opacity:1">
          <g
             inkscape:label="Clip"
             id="g3780"
             style="fill:url(#linearGradient915);fill-opacity:1;stroke:#d6f108;stroke-width:1;stroke-miterlimit:4;stroke-dasharray:none;stroke-opacity:1">
            <path
               inkscape:connector-curvature="0"
               d="m 94.955042,54.694165 c -0.332615,5.66985 -0.144121,11.370296 -0.679775,17.030606 -0.190881,2.017064 -0.512559,4.019606 -0.76884,6.02941 -2.059887,15.593523 -5.436309,30.951499 -9.107656,46.231009 -3.24063,13.18904 -6.701812,26.32158 -10.326487,39.40956 -1.957845,7.22664 -4.398224,14.30636 -6.135489,21.59261 -0.627814,2.59159 -0.305802,1.33631 -0.96053,3.76725 0,0 -9.91893,4.71166 -9.91893,4.71166 v 0 c 0.732756,-2.43455 0.369348,-1.17167 1.083763,-3.79049 1.97922,-7.37366 4.508174,-14.57535 6.69018,-21.88875 3.789042,-13.14485 7.476701,-26.32018 10.79801,-39.59269 3.691642,-15.15512 7.012834,-30.40887 8.761537,-45.929873 0.213077,-1.959507 0.497303,-3.912582 0.639231,-5.878523 0.398311,-5.517312 0.133141,-11.081298 -0.06843,-16.599876 0,0 9.993421,-5.091903 9.993421,-5.091903 z"
               id="path3763"
               style="fill:url(#linearGradient909);fill-opacity:1;stroke:#d6f108;stroke-width:1;stroke-miterlimit:4;stroke-dasharray:none;stroke-opacity:1" />
            <path
               inkscape:connector-curvature="0"
               d="m 125.0362,36.934005 c -1.79265,7.824861 -3.7714,15.606852 -5.70556,23.399458 -0.47416,2.047454 -0.97353,4.089233 -1.42248,6.142363 -0.97948,4.479255 -1.82126,8.987766 -2.78893,13.469585 -1.51094,6.998007 -3.16276,13.966317 -4.70764,20.957039 -2.50827,12.93422 -5.4338,25.77581 -8.36527,38.61797 -1.7885,8.61221 -3.812775,17.16545 -5.880661,25.71301 -0.775787,4.37873 -2.23059,8.57994 -3.456043,12.84041 -0.367868,1.45105 -0.18207,0.74431 -0.555675,2.12068 0,0 -10.064818,4.76815 -10.064818,4.76815 v 0 c 0.439666,-1.36542 0.229687,-0.64882 0.620059,-2.15267 1.325686,-4.31166 3.02556,-8.51417 3.84448,-12.97173 2.216457,-8.60946 4.395854,-17.22347 6.319472,-25.9053 0.948727,-3.99369 1.969736,-7.97014 2.899151,-11.96837 2.062832,-8.87404 3.789008,-17.82281 5.666245,-26.73655 1.58351,-6.972308 3.21207,-13.941324 4.70288,-20.934077 2.32381,-10.900023 0.4533,-2.760273 2.65542,-13.427813 0.42223,-2.045364 0.89786,-4.07934 1.34679,-6.11901 1.73646,-7.621987 3.62896,-15.218027 4.85133,-22.944087 0,0 10.04125,-4.869058 10.04125,-4.869058 z"
               id="path3765"
               style="fill:url(#linearGradient911);fill-opacity:1;stroke:#d6f108;stroke-width:1;stroke-miterlimit:4;stroke-dasharray:none;stroke-opacity:1" />
            <path
               inkscape:connector-curvature="0"
               d="m 88.407947,109.25654 c 5.745966,0.16569 11.473254,-0.57454 17.130533,-1.50298 8.16703,-1.44149 16.09645,-3.91401 24.09186,-6.06421 3.71667,-1.07435 1.93092,-0.53178 5.36024,-1.61785 0,0 -8.57626,6.62872 -8.57626,6.62872 v 0 c -3.36271,0.99177 -1.61432,0.49511 -5.24745,1.48189 -7.98074,2.11131 -15.91644,4.4585 -24.055547,5.9024 -5.882331,0.93169 -11.797803,1.69026 -17.76295,1.75419 0,0 9.059574,-6.58216 9.059574,-6.58216 z"
               id="path3767"
               style="fill:url(#linearGradient913);fill-opacity:1;stroke:#d6f108;stroke-width:1;stroke-miterlimit:4;stroke-dasharray:none;stroke-opacity:1" />
          </g>
        </g>
        <use
           height="100%"
           width="100%"
           id="use3786"
           xlink:href="#g3780"
           y="0"
           x="0"
           transform="translate(-12.149922,-27.401568)" />
      </g>
      <path
         inkscape:label="#path3800"
         sodipodi:nodetypes="ccccsccscccscscscccccsccccccccccscscsccccccccccccscscsccccccccccscscscscscscsscsccc"
         inkscape:connector-curvature="0"
         d="m -40.684207,38.36855 c 9.942843,2.813659 20.222694,4.245055 30.434436,5.687827 16.3454311,1.898537 32.814947,3.096147 49.27854,3.127846 3.06796,0.0059 6.13513,-0.09876 9.202695,-0.148142 7.55182,-0.37029 15.05339,-1.314112 22.39765,-3.126354 3.04227,-0.750697 6.54155,-1.759056 9.43453,-3.077411 1.0712,-0.488159 2.06062,-1.138849 3.09092,-1.708272 -2.32349,1.226606 -4.52252,2.725513 -6.97047,3.679817 -0.6705,0.261387 1.06257,-0.980506 1.50407,-1.548807 1.35127,-1.739321 1.98218,-3.928922 1.75393,-6.120815 -0.0968,-0.929643 -0.40047,-1.825938 -0.60071,-2.738906 -2.36116,-5.934826 -6.37965,-11.079001 -11.39849,-15.019152 -1.05613,-0.829138 -2.19415,-1.548315 -3.29122,-2.322473 -4.06002,-2.588146 -8.40533,-4.733438 -13.0828,-5.938748 -2.44018,-0.628798 -3.679105,-0.751572 -6.135375,-1.118756 -3.18656,-0.404664 -6.46554,-0.523925 -9.625169,0.177615 -1.701753,0.377844 -2.368669,0.736275 -3.974455,1.400757 2.521043,-1.421267 4.985864,-2.947228 7.563124,-4.263805 0.70889,-0.362133 -1.32689,0.884783 -1.94071,1.391634 -0.744,0.61435 -1.451276,1.274784 -2.12495,1.965529 -2.356125,2.415841 -4.092141,5.202171 -5.878184,8.042097 -3.794043,6.199235 -5.958935,13.168357 -8.098372,20.058266 -2.726347,8.780011 -5.194099,17.637411 -7.578844,26.515962 -2.62082,9.601713 -5.4389069,19.148311 -8.1975989,28.711161 -2.333331,9.52045 -5.90423796,18.64911 -9.56932,27.71715 -3.828336,9.15544 -8.9377731,17.6975 -14.3112861,26.01447 -2.240854,3.37457 -4.447839,6.84441 -7.440678,9.61932 -0.43138,0.39997 -0.854189,0.82276 -1.356527,1.12889 -3.531777,2.15235 -7.151555,4.15687 -10.727333,6.2353 -0.424915,0.13899 -0.830255,0.36902 -1.274747,0.41695 -3.296866,0.35552 -4.388012,-4.415 -5.173498,-6.63481 -2.390025,-7.53977 -4.297164,-15.22932 -5.85597,-22.98152 -0.905598,-5.3581 -1.64219,-10.80224 -0.771648,-16.22158 0.584079,-3.63603 1.23867,-5.12625 2.398482,-8.60229 2.509518,-6.78931 6.600555,-12.68773 12.204633,-17.28472 1.043247,-0.85577 2.176095,-1.59606 3.264141,-2.39409 7.780252,-5.14805 15.831087,-9.102032 24.7562016,-11.578889 2.2369965,-0.6208 5.3960925,-1.30239 7.6818015,-1.815759 7.039274,-1.453411 14.1288899,-2.490131 21.2850469,-3.140217 10.027816,-1.03541 20.11359,-1.09155 30.159185,-1.871726 7.60882,-0.899695 15.30273,-1.113055 22.86987,-2.343865 2.40169,-0.4807 4.8888,-0.942342 7.14437,-1.930177 l -8.78311,6.871242 v 0 c -2.30394,0.706493 -4.65956,1.258379 -7.05163,1.567026 -7.4434,0.956398 -14.97005,1.120931 -22.430745,1.927186 -10.12614,0.758846 -20.294181,0.910592 -30.390421,2.071856 -7.1319869,0.761961 -14.2157979,1.817397 -21.2425544,3.270373 -5.3683056,1.20654 -10.6019836,2.57578 -15.7029466,4.67849 -1.306653,0.53863 -4.853181,2.74256 -3.873802,1.7236 1.460582,-1.51961 3.594603,-2.20204 5.391904,-3.30306 -1.110831,0.76607 -2.266558,1.4708 -3.332498,2.29819 -5.662811,4.39551 -9.870906,10.1352 -12.464185,16.80941 -1.198177,3.40853 -1.846204,4.79427 -2.463514,8.36496 -0.918939,5.31538 -0.182804,10.66629 0.657338,15.93547 1.440105,7.69721 3.364419,15.31395 6.019822,22.68791 0.535231,1.34038 1.537052,5.06793 3.466984,5.20907 0.760891,0.0557 1.45616,-0.37252 2.107776,-0.66271 -2.692029,1.59072 -5.352132,3.23675 -8.076086,4.77216 -0.528576,0.29795 1.011891,-0.67319 1.48286,-1.05575 3.247665,-2.63805 5.595758,-6.14752 7.934722,-9.56527 5.508635,-8.20957 10.599515,-16.74397 14.470142,-25.86178 3.69549,-9.02981 7.2647511,-18.13401 9.6210831,-27.62323 2.804274,-9.55249 5.533869,-19.127318 8.246044,-28.706105 2.308452,-8.856575 4.729623,-17.683184 7.3482699,-26.453523 2.07681,-6.955625 4.220424,-13.981192 7.928745,-20.273735 2.223502,-3.710011 4.429101,-7.309762 7.629652,-10.278975 3.557021,-3.299916 9.982035,-6.134328 13.073875,-7.893855 0.68106,-0.240172 1.34957,-0.519426 2.04317,-0.720518 3.82608,-1.109274 7.871405,-0.890462 11.761595,-0.298748 2.39908,0.424261 3.78849,0.610846 6.16704,1.284005 4.71077,1.333207 9.06323,3.627164 13.14721,6.293264 1.12135,0.801955 2.28542,1.547313 3.36405,2.405864 5.16086,4.107868 9.20289,9.477957 11.90615,15.475255 0.60366,2.23797 1.10295,3.244503 0.9034,5.549714 -0.61889,7.149074 -9.54187,10.097733 -14.38318,12.974333 -1.01559,0.498197 -1.999,1.068226 -3.04678,1.494594 -2.7856,1.133528 -6.30842,2.060808 -9.18739,2.69797 -7.26438,1.607722 -14.663005,2.399464 -22.094485,2.666804 -3.04216,0.01778 -6.084442,0.08635 -9.126476,0.05337 -16.536961,-0.179296 -33.0780249,-1.32314 -49.51532,-3.087032 -10.611572,-1.323615 -21.230762,-2.700541 -31.707916,-4.877223 z"
         id="jLetter"
         style="fill:#00807f;fill-opacity:1;stroke-width:0.26458332">
        <desc
           id="desc6423">Letra J del nombre Jackeline</desc>
      </path>
    </g>
  </g>
</svg>
